<svg xmlns="http://www.w3.org/2000/svg" viewBox="0 0 64 64">
<!-- Clipcheck mark: half a human face drawn by hand (green, real), half built from pixels (red, generated). -->
<rect x="1" y="1" width="62" height="62" rx="15" fill="#1f2328" stroke="#3a3f46"/>
<path d="M31 12A18 20 0 0 0 31 52" fill="none" stroke="#63d493" stroke-width="4" stroke-linecap="round"/>
<circle cx="24.5" cy="28" r="2.6" fill="#63d493"/>
<path d="M24 41q4 3 7 2.6" fill="none" stroke="#63d493" stroke-width="3" stroke-linecap="round"/>
<rect x="34" y="14" width="4.2" height="4.2" rx="1" fill="#ff8279" opacity="0.6"/>
<rect x="39.5" y="14" width="4.2" height="4.2" rx="1" fill="#ff8279" opacity="0.6"/>
<rect x="34" y="19.5" width="4.2" height="4.2" rx="1" fill="#ff8279" opacity="0.6"/>
<rect x="39.5" y="19.5" width="4.2" height="4.2" rx="1" fill="#ff8279" opacity="0.6"/>
<rect x="45" y="19.5" width="4.2" height="4.2" rx="1" fill="#ff8279" opacity="0.6"/>
<rect x="34" y="25" width="4.2" height="4.2" rx="1" fill="#ff8279" opacity="0.6"/>
<rect x="39.5" y="25" width="4.2" height="4.2" rx="1" fill="#ff8279" opacity="1"/>
<rect x="45" y="25" width="4.2" height="4.2" rx="1" fill="#ff8279" opacity="0.6"/>
<rect x="34" y="30.5" width="4.2" height="4.2" rx="1" fill="#ff8279" opacity="0.6"/>
<rect x="39.5" y="30.5" width="4.2" height="4.2" rx="1" fill="#ff8279" opacity="0.6"/>
<rect x="45" y="30.5" width="4.2" height="4.2" rx="1" fill="#ff8279" opacity="0.6"/>
<rect x="34" y="36" width="4.2" height="4.2" rx="1" fill="#ff8279" opacity="0.6"/>
<rect x="39.5" y="36" width="4.2" height="4.2" rx="1" fill="#ff8279" opacity="0.6"/>
<rect x="45" y="36" width="4.2" height="4.2" rx="1" fill="#ff8279" opacity="0.6"/>
<rect x="34" y="41.5" width="4.2" height="4.2" rx="1" fill="#ff8279" opacity="1"/>
<rect x="39.5" y="41.5" width="4.2" height="4.2" rx="1" fill="#ff8279" opacity="1"/>
<rect x="34" y="47" width="4.2" height="4.2" rx="1" fill="#ff8279" opacity="0.6"/>
</svg>
